<?xml version="1.0" standalone="no"?>
<!DOCTYPE svg PUBLIC "-//W3C//DTD SVG 20010904//EN"
 "http://www.w3.org/TR/2001/REC-SVG-20010904/DTD/svg10.dtd">
<svg version="1.0" xmlns="http://www.w3.org/2000/svg"
 width="70.000000pt" height="51.000000pt" viewBox="0 0 70.000000 51.000000"
 preserveAspectRatio="xMidYMid meet">

<g transform="translate(0.000000,51.000000) scale(0.100000,-0.100000)"
fill="#000000" stroke="none">
<path d="M144 499 c-3 -6 0 -22 7 -37 12 -22 12 -26 -1 -30 -23 -8 -70 -59
-70 -76 0 -19 -21 -21 -37 -5 -7 7 -19 9 -27 6 -23 -9 -23 -165 0 -174 8 -3
20 -1 27 6 21 21 37 12 37 -20 0 -31 38 -80 70 -91 13 -4 13 -8 1 -30 -21 -40
-8 -48 80 -48 63 0 81 3 86 16 3 8 1 20 -6 27 -25 25 -12 37 44 37 56 0 69
-12 44 -37 -7 -7 -9 -19 -6 -27 5 -13 23 -16 86 -16 88 0 101 8 80 48 -12 22
-12 26 1 30 29 10 70 60 70 86 0 28 9 33 27 15 7 -7 19 -9 27 -6 23 9 23 165
0 174 -8 3 -20 1 -27 -6 -17 -17 -27 -13 -27 10 0 21 -44 72 -70 81 -13 4 -13
8 -1 30 21 40 8 48 -80 48 -63 0 -81 -3 -86 -16 -3 -8 -1 -20 6 -27 25 -25 12
-37 -44 -37 -56 0 -69 12 -44 37 7 7 9 19 6 27 -5 13 -23 16 -86 16 -47 0 -83
-4 -87 -11z m166 -14 c0 -12 -16 -15 -80 -15 -64 0 -80 3 -80 15 0 12 16 15
80 15 64 0 80 -3 80 -15z m250 0 c0 -12 -16 -15 -80 -15 -64 0 -80 3 -80 15 0
12 16 15 80 15 64 0 80 -3 80 -15z m-270 -40 c0 -12 -13 -15 -60 -15 -47 0
-60 3 -60 15 0 12 13 15 60 15 47 0 60 -3 60 -15z m250 0 c0 -12 -13 -15 -60
-15 -47 0 -60 3 -60 15 0 12 13 15 60 15 47 0 60 -3 60 -15z m55 -50 c24 -23
25 -30 25 -140 0 -110 -1 -117 -25 -140 -24 -25 -24 -25 -240 -25 -216 0 -216
0 -240 25 -24 23 -25 30 -25 140 0 110 1 117 25 140 24 25 24 25 240 25 216 0
216 0 240 -25z m-555 -125 c0 -64 -3 -80 -15 -80 -12 0 -15 16 -15 80 0 64 3
80 15 80 12 0 15 -16 15 -80z m650 -10 c0 -64 -3 -80 -15 -80 -12 0 -15 16
-15 80 0 64 3 80 15 80 12 0 15 -16 15 -80z m-610 10 c0 -47 -3 -60 -15 -60
-12 0 -15 13 -15 60 0 47 3 60 15 60 12 0 15 -13 15 -60z m570 -10 c0 -33 -4
-60 -10 -60 -6 0 -10 27 -10 60 0 33 4 60 10 60 6 0 10 -27 10 -60z m-360
-195 c0 -12 -13 -15 -60 -15 -47 0 -60 3 -60 15 0 12 13 15 60 15 47 0 60 -3
60 -15z m250 0 c0 -12 -13 -15 -60 -15 -47 0 -60 3 -60 15 0 12 13 15 60 15
47 0 60 -3 60 -15z m-230 -40 c0 -12 -16 -15 -80 -15 -64 0 -80 3 -80 15 0 12
16 15 80 15 64 0 80 -3 80 -15z m250 0 c0 -12 -16 -15 -80 -15 -64 0 -80 3
-80 15 0 12 16 15 80 15 64 0 80 -3 80 -15z"/>
</g>
</svg>
