<?xml version="1.0" standalone="no"?>
<!DOCTYPE svg PUBLIC "-//W3C//DTD SVG 20010904//EN"
 "http://www.w3.org/TR/2001/REC-SVG-20010904/DTD/svg10.dtd">
<svg version="1.0" xmlns="http://www.w3.org/2000/svg"
 width="492.000000pt" height="416.000000pt" viewBox="0 0 492.000000 416.000000"
 preserveAspectRatio="xMidYMid meet">

<g transform="translate(0.000000,416.000000) scale(0.100000,-0.100000)"
fill="#000000" stroke="none">
<path d="M220 2505 l0 -1425 1685 0 1685 0 0 25 c0 18 -5 25 -20 25 -19 0 -20
7 -20 115 0 108 -1 115 -20 115 -19 0 -20 -7 -20 -115 l0 -115 -1620 0 -1620
0 0 1380 0 1380 1105 0 1105 0 1 -332 0 -333 112 -85 c61 -47 117 -86 124 -88
7 -2 13 5 13 16 0 12 -38 49 -110 106 l-110 86 0 315 0 315 1010 0 1010 0 0
-615 0 -615 -625 0 -625 0 -122 95 c-94 74 -124 93 -134 84 -8 -6 -14 -15 -14
-19 0 -4 56 -51 124 -104 l124 -96 636 0 636 0 0 -120 0 -120 -25 0 c-20 0
-25 -5 -25 -25 0 -20 5 -25 25 -25 l25 0 0 -225 0 -225 -235 0 -235 0 0 225 0
225 165 0 165 0 0 25 0 25 -230 0 -230 0 0 -25 c0 -22 4 -25 40 -25 l40 0 0
-225 0 -225 -225 0 -225 0 0 225 0 225 130 0 130 0 0 25 0 25 -155 0 -155 0 0
-275 0 -275 510 0 510 0 0 -350 0 -350 -280 0 c-273 0 -280 0 -280 -20 0 -20
7 -20 300 -20 l300 0 0 1420 0 1420 -2175 0 -2175 0 0 -1425z"/>
<path d="M554 3795 c-4 -8 -1 -22 6 -30 10 -12 5 -21 -24 -48 -26 -25 -36 -43
-36 -66 0 -34 -16 -41 -35 -14 -7 9 -19 14 -29 10 -23 -9 -24 -165 0 -174 8
-3 20 -1 27 6 19 19 32 12 42 -21 6 -20 23 -41 42 -53 36 -22 41 -42 16 -60
-9 -7 -14 -19 -10 -29 9 -23 175 -24 184 0 3 8 1 20 -6 27 -6 6 -11 19 -11 29
0 15 9 18 50 18 40 0 50 -3 50 -16 0 -9 -7 -22 -17 -29 -9 -7 -14 -19 -10 -29
9 -23 175 -24 184 0 3 8 1 20 -6 27 -20 20 -12 43 22 55 34 12 57 46 57 82 0
24 9 25 25 3 7 -9 19 -14 29 -10 23 9 24 165 0 174 -8 3 -20 1 -27 -6 -18 -18
-27 -13 -27 15 0 31 -50 84 -79 84 -25 0 -27 9 -4 25 9 7 14 19 10 29 -9 23
-175 24 -184 0 -3 -8 -1 -20 6 -27 21 -21 11 -27 -39 -27 -53 0 -60 5 -33 25
9 7 14 19 10 29 -9 23 -175 24 -183 1z m176 -10 c0 -12 -16 -15 -85 -15 -69 0
-85 3 -85 15 0 12 16 15 85 15 69 0 85 -3 85 -15z m240 0 c0 -12 -16 -15 -85
-15 -69 0 -85 3 -85 15 0 12 16 15 85 15 69 0 85 -3 85 -15z m-270 -35 c0 -6
-27 -10 -60 -10 -33 0 -60 4 -60 10 0 6 27 10 60 10 33 0 60 -4 60 -10z m240
0 c0 -6 -27 -10 -60 -10 -33 0 -60 4 -60 10 0 6 27 10 60 10 33 0 60 -4 60
-10z m75 -45 c24 -23 25 -30 25 -140 0 -110 -1 -117 -25 -140 -24 -25 -24 -25
-240 -25 -216 0 -216 0 -240 25 -24 23 -25 30 -25 140 0 110 1 117 25 140 24
25 24 25 240 25 216 0 216 0 240 -25z m-555 -145 c0 -64 -3 -80 -15 -80 -12 0
-15 16 -15 80 0 64 3 80 15 80 12 0 15 -16 15 -80z m650 0 c0 -64 -3 -80 -15
-80 -12 0 -15 16 -15 80 0 64 3 80 15 80 12 0 15 -16 15 -80z m-40 5 c0 -30
-4 -55 -10 -55 -5 0 -10 25 -10 55 0 30 5 55 10 55 6 0 10 -25 10 -55z m-570
-10 c0 -42 -3 -55 -15 -55 -12 0 -15 13 -15 55 0 42 3 55 15 55 12 0 15 -13
15 -55z m210 -185 c0 -18 -7 -20 -60 -20 -53 0 -60 2 -60 20 0 18 7 20 60 20
53 0 60 -2 60 -20z m240 0 c0 -18 -7 -20 -60 -20 -53 0 -60 2 -60 20 0 18 7
20 60 20 53 0 60 -2 60 -20z m-220 -45 c0 -12 -16 -15 -85 -15 -69 0 -85 3
-85 15 0 12 16 15 85 15 69 0 85 -3 85 -15z m240 0 c0 -12 -16 -15 -85 -15
-69 0 -85 3 -85 15 0 12 16 15 85 15 69 0 85 -3 85 -15z"/>
<path d="M1514 3795 c-4 -8 -1 -22 6 -30 10 -12 5 -21 -24 -48 -26 -25 -36
-43 -36 -66 0 -34 -16 -41 -35 -14 -7 9 -19 14 -29 10 -23 -9 -24 -165 0 -174
8 -3 20 -1 27 6 19 19 32 12 42 -21 6 -20 23 -41 42 -53 36 -22 41 -42 16 -60
-9 -7 -14 -19 -10 -29 9 -23 175 -24 184 0 3 8 1 20 -6 27 -6 6 -11 19 -11 29
0 15 9 18 50 18 40 0 50 -3 50 -16 0 -9 -7 -22 -17 -29 -9 -7 -14 -19 -10 -29
9 -23 175 -24 184 0 3 8 1 20 -6 27 -20 20 -12 43 22 55 34 12 57 46 57 82 0
24 9 25 25 3 7 -9 19 -14 29 -10 23 9 24 165 0 174 -8 3 -20 1 -27 -6 -18 -18
-27 -13 -27 15 0 31 -50 84 -79 84 -25 0 -27 9 -4 25 9 7 14 19 10 29 -9 23
-175 24 -184 0 -3 -8 -1 -20 6 -27 21 -21 11 -27 -39 -27 -53 0 -60 5 -33 25
9 7 14 19 10 29 -9 23 -175 24 -183 1z m176 -10 c0 -12 -16 -15 -85 -15 -69 0
-85 3 -85 15 0 12 16 15 85 15 69 0 85 -3 85 -15z m240 0 c0 -12 -16 -15 -85
-15 -69 0 -85 3 -85 15 0 12 16 15 85 15 69 0 85 -3 85 -15z m-270 -35 c0 -6
-27 -10 -60 -10 -33 0 -60 4 -60 10 0 6 27 10 60 10 33 0 60 -4 60 -10z m240
0 c0 -6 -27 -10 -60 -10 -33 0 -60 4 -60 10 0 6 27 10 60 10 33 0 60 -4 60
-10z m75 -45 c24 -23 25 -30 25 -140 0 -110 -1 -117 -25 -140 -24 -25 -24 -25
-240 -25 -216 0 -216 0 -240 25 -24 23 -25 30 -25 140 0 110 1 117 25 140 24
25 24 25 240 25 216 0 216 0 240 -25z m-555 -145 c0 -64 -3 -80 -15 -80 -12 0
-15 16 -15 80 0 64 3 80 15 80 12 0 15 -16 15 -80z m650 0 c0 -64 -3 -80 -15
-80 -12 0 -15 16 -15 80 0 64 3 80 15 80 12 0 15 -16 15 -80z m-40 5 c0 -30
-4 -55 -10 -55 -5 0 -10 25 -10 55 0 30 5 55 10 55 6 0 10 -25 10 -55z m-570
-10 c0 -42 -3 -55 -15 -55 -12 0 -15 13 -15 55 0 42 3 55 15 55 12 0 15 -13
15 -55z m210 -185 c0 -18 -7 -20 -60 -20 -53 0 -60 2 -60 20 0 18 7 20 60 20
53 0 60 -2 60 -20z m240 0 c0 -18 -7 -20 -60 -20 -53 0 -60 2 -60 20 0 18 7
20 60 20 53 0 60 -2 60 -20z m-220 -45 c0 -12 -16 -15 -85 -15 -69 0 -85 3
-85 15 0 12 16 15 85 15 69 0 85 -3 85 -15z m240 0 c0 -12 -16 -15 -85 -15
-69 0 -85 3 -85 15 0 12 16 15 85 15 69 0 85 -3 85 -15z"/>
<path d="M703 3174 c-3 -8 -1 -20 6 -27 21 -21 12 -37 -20 -37 -43 0 -99 -56
-99 -99 0 -34 -16 -40 -35 -14 -7 9 -19 14 -29 10 -23 -9 -24 -165 0 -174 8
-3 20 -1 27 6 19 19 37 12 37 -15 0 -41 59 -94 104 -94 40 0 50 -23 19 -45 -9
-7 -14 -19 -10 -29 9 -23 165 -24 174 0 3 8 1 20 -6 27 -19 19 -13 47 10 47
30 0 89 62 89 94 0 30 17 34 35 9 7 -9 19 -14 29 -10 23 9 24 165 0 174 -8 3
-20 1 -27 -6 -21 -21 -37 -12 -37 20 0 40 -56 99 -94 99 -30 0 -34 17 -9 35 9
7 14 19 10 29 -9 23 -165 24 -174 0z m167 -9 c0 -12 -16 -15 -80 -15 -64 0
-80 3 -80 15 0 12 16 15 80 15 64 0 80 -3 80 -15z m-30 -40 c0 -12 -13 -15
-55 -15 -42 0 -55 3 -55 15 0 12 13 15 55 15 42 0 55 -3 55 -15z m92 -53 c22
-21 23 -31 23 -152 0 -121 -1 -131 -23 -152 -20 -21 -34 -23 -133 -26 -179 -6
-199 12 -199 180 1 165 17 179 192 176 107 -3 120 -5 140 -26z m-382 -152 c0
-64 -3 -80 -15 -80 -12 0 -15 16 -15 80 0 64 3 80 15 80 12 0 15 -16 15 -80z
m490 -10 c0 -64 -3 -80 -15 -80 -12 0 -15 16 -15 80 0 64 3 80 15 80 12 0 15
-16 15 -80z m-450 5 c0 -42 -3 -55 -15 -55 -12 0 -15 13 -15 55 0 42 3 55 15
55 12 0 15 -13 15 -55z m410 0 c0 -42 -3 -55 -15 -55 -12 0 -15 13 -15 55 0
42 3 55 15 55 12 0 15 -13 15 -55z m-150 -205 c0 -18 -7 -20 -55 -20 -48 0
-55 2 -55 20 0 18 7 20 55 20 48 0 55 -2 55 -20z m20 -45 c0 -12 -16 -15 -80
-15 -64 0 -80 3 -80 15 0 12 16 15 80 15 64 0 80 -3 80 -15z"/>
<path d="M1698 3173 c64 -3 82 -7 82 -18 0 -12 -16 -15 -79 -15 -74 0 -79 -1
-74 -20 4 -16 0 -20 -22 -20 -39 0 -95 -58 -95 -99 0 -34 -16 -40 -35 -14 -7
9 -19 14 -29 10 -23 -9 -24 -165 0 -174 8 -3 20 -1 27 6 19 19 37 12 37 -15 0
-38 59 -94 99 -94 31 0 44 -23 19 -33 -7 -3 24 -6 70 -6 66 -1 82 -4 82 -16 0
-12 -16 -15 -80 -15 -47 0 -80 -4 -80 -10 0 -16 149 -13 166 4 18 19 18 32 -1
40 -26 9 -18 36 11 36 38 0 94 59 94 99 0 35 25 43 35 11 9 -27 33 -25 40 3 3
12 4 54 2 92 l-3 70 -2 -82 c-2 -66 -5 -83 -17 -83 -12 0 -15 15 -15 79 0 74
-1 79 -20 74 -16 -4 -20 0 -20 22 0 39 -58 95 -99 95 -35 0 -43 25 -11 35 24
8 26 30 4 39 -9 3 -50 5 -92 4 l-77 -2 83 -3z m52 -58 c0 -12 -13 -15 -55 -15
-42 0 -55 3 -55 15 0 12 13 15 55 15 42 0 55 -3 55 -15z m75 -37 c43 -19 55
-56 55 -168 0 -113 -14 -154 -56 -170 -14 -6 -70 -10 -125 -10 -161 0 -179 19
-179 183 1 159 18 176 177 177 59 0 113 -5 128 -12z m-355 -168 c0 -64 -3 -80
-15 -80 -12 0 -15 16 -15 80 0 64 3 80 15 80 12 0 15 -16 15 -80z m450 5 c0
-42 -3 -55 -15 -55 -12 0 -15 13 -15 55 0 42 3 55 15 55 12 0 15 -13 15 -55z
m-410 -10 c0 -42 -3 -55 -15 -55 -12 0 -15 13 -15 55 0 42 3 55 15 55 12 0 15
-13 15 -55z m250 -200 c0 -12 -13 -15 -55 -15 -42 0 -55 3 -55 15 0 12 13 15
55 15 42 0 55 -3 55 -15z"/>
<path d="M703 2354 c-3 -8 -1 -20 6 -27 19 -19 12 -27 -25 -27 -51 0 -104 -53
-104 -104 0 -40 -6 -45 -25 -19 -7 9 -19 14 -29 10 -23 -9 -24 -165 0 -174 8
-3 20 -1 27 6 17 17 27 13 27 -10 0 -12 15 -36 34 -55 29 -29 41 -34 79 -34
42 0 45 -2 39 -22 -3 -13 -12 -28 -20 -34 -9 -6 -13 -18 -9 -28 9 -23 165 -24
173 -1 4 8 2 21 -3 28 -6 6 -13 22 -16 35 -4 17 -1 22 15 22 26 0 88 62 88 89
0 25 28 28 45 4 7 -9 19 -14 29 -10 23 9 24 165 0 174 -8 3 -20 1 -27 -6 -6
-6 -19 -11 -29 -11 -14 0 -18 8 -18 36 0 28 -8 44 -34 70 -19 19 -43 34 -55
34 -25 0 -27 9 -4 25 9 7 14 19 10 29 -9 23 -165 24 -174 0z m167 -9 c0 -12
-16 -15 -80 -15 -64 0 -80 3 -80 15 0 12 16 15 80 15 64 0 80 -3 80 -15z m-30
-35 c0 -5 -25 -10 -55 -10 -30 0 -55 5 -55 10 0 6 25 10 55 10 30 0 55 -4 55
-10z m55 -32 c43 -19 55 -56 55 -168 0 -113 -14 -154 -56 -170 -14 -6 -70 -10
-125 -10 -161 0 -179 19 -179 183 1 159 18 176 177 177 59 0 113 -5 128 -12z
m-345 -178 c0 -64 -3 -80 -15 -80 -12 0 -15 16 -15 80 0 64 3 80 15 80 12 0
15 -16 15 -80z m490 -10 c0 -64 -3 -80 -15 -80 -12 0 -15 16 -15 80 0 64 3 80
15 80 12 0 15 -16 15 -80z m-460 5 c0 -30 -4 -55 -10 -55 -5 0 -10 25 -10 55
0 30 5 55 10 55 6 0 10 -25 10 -55z m420 0 c0 -48 -2 -55 -20 -55 -18 0 -20 7
-20 55 0 48 2 55 20 55 18 0 20 -7 20 -55z m-150 -205 c0 -18 -7 -20 -55 -20
-48 0 -55 2 -55 20 0 18 7 20 55 20 48 0 55 -2 55 -20z m20 -45 c0 -12 -16
-15 -80 -15 -64 0 -80 3 -80 15 0 12 16 15 80 15 64 0 80 -3 80 -15z"/>
<path d="M1623 2354 c-3 -8 -1 -20 6 -27 21 -21 12 -37 -20 -37 -43 0 -99 -56
-99 -99 0 -34 -16 -40 -35 -14 -7 9 -19 14 -29 10 -23 -9 -24 -165 0 -174 8
-3 20 -1 27 6 19 19 37 12 37 -15 0 -41 59 -94 104 -94 40 0 50 -23 19 -45 -9
-7 -14 -19 -10 -29 9 -23 165 -24 174 0 3 8 1 20 -6 27 -19 19 -13 47 10 47
30 0 89 62 89 94 0 30 17 34 35 9 7 -9 19 -14 29 -10 23 9 24 165 0 174 -8 3
-20 1 -27 -6 -21 -21 -37 -12 -37 20 0 40 -56 99 -94 99 -30 0 -34 17 -9 35 9
7 14 19 10 29 -9 23 -165 24 -174 0z m167 -9 c0 -12 -16 -15 -80 -15 -64 0
-80 3 -80 15 0 12 16 15 80 15 64 0 80 -3 80 -15z m-30 -40 c0 -12 -13 -15
-55 -15 -42 0 -55 3 -55 15 0 12 13 15 55 15 42 0 55 -3 55 -15z m65 -37 c43
-19 55 -56 55 -168 0 -113 -14 -154 -56 -170 -14 -6 -70 -10 -125 -10 -161 0
-179 19 -179 183 1 110 10 140 51 163 31 17 218 19 254 2z m-355 -168 c0 -64
-3 -80 -15 -80 -12 0 -15 16 -15 80 0 64 3 80 15 80 12 0 15 -16 15 -80z m490
-10 c0 -64 -3 -80 -15 -80 -12 0 -15 16 -15 80 0 64 3 80 15 80 12 0 15 -16
15 -80z m-450 5 c0 -42 -3 -55 -15 -55 -12 0 -15 13 -15 55 0 42 3 55 15 55
12 0 15 -13 15 -55z m410 0 c0 -42 -3 -55 -15 -55 -12 0 -15 13 -15 55 0 42 3
55 15 55 12 0 15 -13 15 -55z m-150 -205 c0 -18 -7 -20 -55 -20 -48 0 -55 2
-55 20 0 18 7 20 55 20 48 0 55 -2 55 -20z m20 -45 c0 -12 -16 -15 -80 -15
-64 0 -80 3 -80 15 0 12 16 15 80 15 64 0 80 -3 80 -15z"/>
<path d="M554 1655 c-4 -8 -1 -22 6 -30 10 -12 5 -21 -24 -48 -26 -25 -36 -43
-36 -66 0 -34 -16 -41 -35 -14 -7 9 -19 14 -29 10 -23 -9 -24 -165 0 -174 8
-3 20 -1 27 6 19 19 32 12 42 -21 6 -20 23 -41 42 -53 36 -22 41 -42 16 -60
-9 -7 -14 -19 -10 -29 9 -23 175 -24 184 0 3 8 1 20 -6 27 -6 6 -11 19 -11 29
0 15 9 18 50 18 40 0 50 -3 50 -16 0 -9 -7 -22 -17 -29 -9 -7 -14 -19 -10 -29
9 -23 175 -24 184 0 3 8 1 20 -6 27 -20 20 -12 43 22 55 34 12 57 46 57 82 0
24 9 25 25 3 7 -9 19 -14 29 -10 23 9 24 165 0 174 -8 3 -20 1 -27 -6 -18 -18
-27 -13 -27 15 0 31 -50 84 -79 84 -25 0 -27 9 -4 25 9 7 14 19 10 29 -9 23
-175 24 -184 0 -3 -8 -1 -20 6 -27 21 -21 11 -27 -39 -27 -53 0 -60 5 -33 25
9 7 14 19 10 29 -9 23 -175 24 -183 1z m176 -10 c0 -12 -16 -15 -85 -15 -69 0
-85 3 -85 15 0 12 16 15 85 15 69 0 85 -3 85 -15z m240 0 c0 -12 -16 -15 -85
-15 -69 0 -85 3 -85 15 0 12 16 15 85 15 69 0 85 -3 85 -15z m-270 -35 c0 -6
-27 -10 -60 -10 -33 0 -60 4 -60 10 0 6 27 10 60 10 33 0 60 -4 60 -10z m240
0 c0 -6 -27 -10 -60 -10 -33 0 -60 4 -60 10 0 6 27 10 60 10 33 0 60 -4 60
-10z m75 -45 c24 -23 25 -30 25 -140 0 -110 -1 -117 -25 -140 -24 -25 -24 -25
-240 -25 -216 0 -216 0 -240 25 -24 23 -25 30 -25 140 0 110 1 117 25 140 24
25 24 25 240 25 216 0 216 0 240 -25z m-555 -145 c0 -64 -3 -80 -15 -80 -12 0
-15 16 -15 80 0 64 3 80 15 80 12 0 15 -16 15 -80z m650 0 c0 -64 -3 -80 -15
-80 -12 0 -15 16 -15 80 0 64 3 80 15 80 12 0 15 -16 15 -80z m-40 5 c0 -30
-4 -55 -10 -55 -5 0 -10 25 -10 55 0 30 5 55 10 55 6 0 10 -25 10 -55z m-570
-10 c0 -42 -3 -55 -15 -55 -12 0 -15 13 -15 55 0 42 3 55 15 55 12 0 15 -13
15 -55z m210 -185 c0 -18 -7 -20 -60 -20 -53 0 -60 2 -60 20 0 18 7 20 60 20
53 0 60 -2 60 -20z m240 0 c0 -18 -7 -20 -60 -20 -53 0 -60 2 -60 20 0 18 7
20 60 20 53 0 60 -2 60 -20z m-220 -45 c0 -12 -16 -15 -85 -15 -69 0 -85 3
-85 15 0 12 16 15 85 15 69 0 85 -3 85 -15z m240 0 c0 -12 -16 -15 -85 -15
-69 0 -85 3 -85 15 0 12 16 15 85 15 69 0 85 -3 85 -15z"/>
<path d="M1514 1655 c-4 -8 -1 -22 6 -30 10 -12 5 -21 -24 -48 -26 -25 -36
-43 -36 -66 0 -34 -16 -41 -35 -14 -7 9 -19 14 -29 10 -23 -9 -24 -165 0 -174
8 -3 20 -1 27 6 19 19 32 12 42 -21 6 -20 23 -41 42 -53 36 -22 41 -42 16 -60
-9 -7 -14 -19 -10 -29 9 -23 175 -24 184 0 3 8 1 20 -6 27 -6 6 -11 19 -11 29
0 15 9 18 50 18 40 0 50 -3 50 -16 0 -9 -7 -22 -17 -29 -9 -7 -14 -19 -10 -29
9 -23 175 -24 184 0 3 8 1 20 -6 27 -20 20 -12 43 22 55 34 12 57 46 57 82 0
24 9 25 25 3 7 -9 19 -14 29 -10 23 9 24 165 0 174 -8 3 -20 1 -27 -6 -18 -18
-27 -13 -27 15 0 31 -50 84 -79 84 -25 0 -27 9 -4 25 9 7 14 19 10 29 -9 23
-175 24 -184 0 -3 -8 -1 -20 6 -27 21 -21 11 -27 -39 -27 -53 0 -60 5 -33 25
9 7 14 19 10 29 -9 23 -175 24 -183 1z m176 -10 c0 -12 -16 -15 -85 -15 -69 0
-85 3 -85 15 0 12 16 15 85 15 69 0 85 -3 85 -15z m240 0 c0 -12 -16 -15 -85
-15 -69 0 -85 3 -85 15 0 12 16 15 85 15 69 0 85 -3 85 -15z m-270 -35 c0 -6
-27 -10 -60 -10 -33 0 -60 4 -60 10 0 6 27 10 60 10 33 0 60 -4 60 -10z m240
0 c0 -6 -27 -10 -60 -10 -33 0 -60 4 -60 10 0 6 27 10 60 10 33 0 60 -4 60
-10z m75 -45 c24 -23 25 -30 25 -140 0 -110 -1 -117 -25 -140 -24 -25 -24 -25
-240 -25 -216 0 -216 0 -240 25 -24 23 -25 30 -25 140 0 110 1 117 25 140 24
25 24 25 240 25 216 0 216 0 240 -25z m-555 -145 c0 -64 -3 -80 -15 -80 -12 0
-15 16 -15 80 0 64 3 80 15 80 12 0 15 -16 15 -80z m650 0 c0 -64 -3 -80 -15
-80 -12 0 -15 16 -15 80 0 64 3 80 15 80 12 0 15 -16 15 -80z m-40 5 c0 -30
-4 -55 -10 -55 -5 0 -10 25 -10 55 0 30 5 55 10 55 6 0 10 -25 10 -55z m-570
-10 c0 -42 -3 -55 -15 -55 -12 0 -15 13 -15 55 0 42 3 55 15 55 12 0 15 -13
15 -55z m210 -185 c0 -18 -7 -20 -60 -20 -53 0 -60 2 -60 20 0 18 7 20 60 20
53 0 60 -2 60 -20z m240 0 c0 -18 -7 -20 -60 -20 -53 0 -60 2 -60 20 0 18 7
20 60 20 53 0 60 -2 60 -20z m-220 -45 c0 -12 -16 -15 -85 -15 -69 0 -85 3
-85 15 0 12 16 15 85 15 69 0 85 -3 85 -15z m240 0 c0 -12 -16 -15 -85 -15
-69 0 -85 3 -85 15 0 12 16 15 85 15 69 0 85 -3 85 -15z"/>
<path d="M1785 678 l-60 -63 63 60 c34 33 62 61 62 62 0 8 -10 -1 -65 -59z"/>
<path d="M2995 678 l-60 -63 62 59 c39 38 65 56 74 51 8 -5 10 -4 5 3 -12 19
-19 15 -81 -50z"/>
<path d="M959 668 c37 -38 52 -62 47 -73 -3 -9 -2 -13 4 -10 20 12 9 32 -47
85 l-58 55 54 -57z"/>
<path d="M2160 665 c30 -34 57 -59 60 -58 2 2 -23 29 -55 61 l-59 57 54 -60z"/>
<path d="M3117 700 c-31 -24 -37 -25 -37 -3 0 12 -17 0 -55 -37 -44 -44 -52
-56 -40 -63 13 -7 12 -13 -10 -38 -33 -40 -33 -88 0 -127 14 -17 25 -35 25
-41 0 -6 6 -11 13 -11 7 0 28 -16 47 -35 26 -27 31 -38 22 -47 -9 -9 -24 -1
-64 37 l-52 50 54 -60 c46 -50 56 -57 62 -42 9 21 17 21 42 2 33 -25 81 -19
120 15 34 31 34 31 49 10 8 -12 13 -29 10 -40 -3 -10 0 -21 5 -24 6 -3 8 2 5
13 -3 10 0 22 6 26 8 4 4 13 -11 24 l-22 18 30 29 c46 46 84 108 84 137 0 31
-31 96 -46 97 -5 0 -25 16 -44 35 -27 28 -31 38 -22 47 10 10 22 3 58 -35 25
-26 48 -47 51 -47 4 0 -18 26 -48 58 -45 48 -55 54 -61 40 -10 -23 -15 -23
-50 7 -36 31 -86 33 -121 5z m96 -1 c12 -6 55 -43 94 -82 78 -76 95 -115 73
-158 -24 -48 -153 -169 -186 -175 -43 -8 -66 6 -151 89 -111 109 -109 139 14
258 84 82 108 92 156 68z m-163 -64 c-29 -30 -60 -46 -60 -30 0 14 76 81 84
74 6 -6 -4 -23 -24 -44z"/>
<path d="M3370 665 c30 -34 57 -59 60 -58 2 2 -23 29 -55 61 l-59 57 54 -60z"/>
<path d="M594 688 l-19 -23 23 19 c21 18 27 26 19 26 -2 0 -12 -10 -23 -22z"/>
<path d="M707 690 c-22 -17 -27 -18 -34 -6 -6 12 -11 12 -23 2 -24 -19 -96
-100 -83 -92 24 13 23 -16 -1 -45 -49 -58 -32 -108 67 -197 33 -31 49 -62 30
-62 -4 0 -30 21 -57 48 l-50 47 54 -60 c47 -51 56 -57 62 -42 8 18 9 18 34 -2
45 -36 84 -28 154 30 121 101 155 174 110 232 -16 20 -17 27 -6 36 7 6 16 8
19 4 4 -3 7 -3 7 2 0 4 -25 34 -55 66 -40 42 -55 52 -55 39 0 -31 -19 -33 -51
-6 -37 32 -86 34 -122 6z m96 -1 c12 -6 55 -43 94 -82 78 -76 95 -115 73 -158
-24 -48 -153 -169 -186 -175 -43 -8 -66 6 -151 89 -111 109 -109 139 14 258
84 82 108 92 156 68z m-133 -22 c0 -20 -67 -80 -80 -72 -8 5 0 20 26 46 40 41
54 48 54 26z m265 -37 c33 -34 36 -40 21 -46 -21 -8 -92 57 -82 75 11 17 19
14 61 -29z"/>
<path d="M1907 690 c-24 -19 -26 -20 -37 -3 -9 15 -9 14 -5 -7 8 -34 -56 -100
-79 -81 -11 9 -16 9 -22 0 -4 -7 -3 -9 4 -5 23 14 22 -16 -2 -45 -49 -58 -32
-108 67 -197 33 -31 49 -62 30 -62 -4 0 -30 21 -57 48 l-50 47 54 -60 c47 -51
56 -57 62 -42 8 18 9 18 34 -2 40 -31 86 -27 130 11 34 30 37 31 49 15 7 -10
11 -26 8 -36 -3 -10 0 -22 5 -25 6 -3 8 2 6 11 -3 12 11 34 41 63 25 24 45 48
45 54 0 5 -18 -10 -40 -34 -34 -37 -42 -41 -55 -30 -14 12 -12 17 21 51 24 25
42 35 53 31 13 -5 14 -3 4 9 -9 11 -8 18 3 33 20 28 17 79 -6 108 -10 14 -16
28 -13 32 3 3 0 6 -8 6 -8 0 -39 25 -69 56 -76 78 -123 93 -173 54z m96 -1
c12 -6 55 -43 94 -82 111 -109 109 -140 -14 -259 -108 -103 -130 -103 -245 10
-116 112 -115 143 4 258 88 86 113 97 161 73z"/>
<path d="M2077 690 c-3 -12 0 -20 7 -20 7 0 25 -14 42 -31 16 -17 38 -35 49
-41 11 -6 -5 16 -35 48 -30 32 -56 60 -56 62 -1 1 -4 -6 -7 -18z"/>
<path d="M1807 650 c-16 -17 -24 -30 -19 -30 4 0 21 14 37 30 16 17 25 30 19
30 -5 -1 -22 -14 -37 -30z"/>
<path d="M534 629 c-3 -6 -2 -15 3 -20 5 -5 9 -1 9 11 0 23 -2 24 -12 9z"/>
<path d="M3378 398 c8 -9 11 -22 7 -28 -3 -5 -1 -10 4 -10 17 0 13 26 -6 41
-16 13 -17 12 -5 -3z"/>
<path d="M970 387 c12 -16 9 -22 -25 -57 -32 -33 -41 -37 -54 -27 -14 11 -14
10 -2 -6 14 -17 17 -15 60 27 44 45 45 46 26 63 -18 17 -18 17 -5 0z"/>
<path d="M3425 376 c4 -15 -8 -34 -47 -75 l-53 -56 59 56 c51 50 57 59 46 75
-11 18 -11 18 -5 0z"/>
<path d="M533 364 c-4 -11 13 -34 53 -72 l59 -57 -54 57 c-36 37 -52 62 -48
72 4 9 4 16 1 16 -2 0 -7 -7 -11 -16z"/>
<path d="M1016 367 c3 -10 9 -15 12 -12 3 3 0 11 -7 18 -10 9 -11 8 -5 -6z"/>
<path d="M1733 364 c-4 -11 13 -34 53 -72 l59 -57 -54 57 c-36 37 -52 62 -48
72 4 9 4 16 1 16 -2 0 -7 -7 -11 -16z"/>
<path d="M2216 367 c3 -10 9 -15 12 -12 3 3 0 11 -7 18 -10 9 -11 8 -5 -6z"/>
<path d="M2940 351 c0 -4 25 -31 55 -61 30 -30 55 -50 55 -45 0 6 -25 33 -55
61 -30 28 -55 48 -55 45z"/>
<path d="M3345 330 c-10 -11 -14 -20 -8 -20 5 0 18 9 28 20 10 11 14 20 8 20
-5 0 -18 -9 -28 -20z"/>
<path d="M1000 329 c0 -5 5 -7 10 -4 6 3 10 8 10 11 0 2 -4 4 -10 4 -5 0 -10
-5 -10 -11z"/>
<path d="M2175 310 c-16 -16 -25 -30 -19 -29 8 0 60 59 52 59 -3 0 -17 -13
-33 -30z"/>
<path d="M890 261 c0 -6 4 -13 10 -16 6 -3 7 1 4 9 -7 18 -14 21 -14 7z"/>
</g>
</svg>
