<?xml version="1.0" standalone="no"?>
<!DOCTYPE svg PUBLIC "-//W3C//DTD SVG 20010904//EN"
 "http://www.w3.org/TR/2001/REC-SVG-20010904/DTD/svg10.dtd">
<svg version="1.0" xmlns="http://www.w3.org/2000/svg"
 width="51.000000pt" height="51.000000pt" viewBox="0 0 51.000000 51.000000"
 preserveAspectRatio="xMidYMid meet">

<g transform="translate(0.000000,51.000000) scale(0.100000,-0.100000)"
fill="#000000" stroke="none">
<path d="M163 494 c-3 -8 -1 -20 6 -27 20 -20 12 -37 -17 -37 -34 0 -72 -36
-72 -68 0 -24 -19 -29 -37 -11 -7 7 -19 9 -27 6 -23 -9 -23 -165 0 -174 8 -3
20 -1 27 6 22 22 37 12 37 -27 0 -46 32 -82 73 -82 28 0 35 -18 16 -37 -7 -7
-9 -19 -6 -27 9 -23 165 -23 174 0 3 8 1 20 -6 27 -21 21 -12 37 22 37 43 0
77 35 77 78 0 33 16 42 37 21 7 -7 19 -9 27 -6 23 9 23 165 0 174 -8 3 -20 1
-27 -6 -20 -20 -37 -12 -37 17 0 38 -37 72 -78 72 -33 0 -42 16 -21 37 7 7 9
19 6 27 -9 23 -165 23 -174 0z m167 -9 c0 -12 -16 -15 -80 -15 -64 0 -80 3
-80 15 0 12 16 15 80 15 64 0 80 -3 80 -15z m-20 -40 c0 -12 -13 -15 -60 -15
-47 0 -60 3 -60 15 0 12 13 15 60 15 47 0 60 -3 60 -15z m92 -42 c16 -14 18
-33 18 -146 0 -173 6 -167 -163 -167 -173 0 -167 -6 -167 163 0 173 -6 167
163 167 107 0 134 -3 149 -17z m-362 -133 c0 -64 -3 -80 -15 -80 -12 0 -15 16
-15 80 0 64 3 80 15 80 12 0 15 -16 15 -80z m460 -10 c0 -64 -3 -80 -15 -80
-12 0 -15 16 -15 80 0 64 3 80 15 80 12 0 15 -16 15 -80z m-420 10 c0 -47 -3
-60 -15 -60 -12 0 -15 13 -15 60 0 47 3 60 15 60 12 0 15 -13 15 -60z m380
-10 c0 -47 -3 -60 -15 -60 -12 0 -15 13 -15 60 0 47 3 60 15 60 12 0 15 -13
15 -60z m-150 -195 c0 -12 -13 -15 -60 -15 -47 0 -60 3 -60 15 0 12 13 15 60
15 47 0 60 -3 60 -15z m20 -40 c0 -12 -16 -15 -80 -15 -64 0 -80 3 -80 15 0
12 16 15 80 15 64 0 80 -3 80 -15z"/>
</g>
</svg>
